<svg id="Layer_1" data-name="Layer 1" xmlns="http://www.w3.org/2000/svg" viewBox="0 0 55.31 80.6"><path d="M580.76,499.27a6.37,6.37,0,0,1,1.58.12l1.39.2c.44.07.91.06,1.37.09a10.81,10.81,0,0,1,2.78.71,27,27,0,0,1,2.59,1.05,18.51,18.51,0,0,1,4.22,2.82,17.25,17.25,0,0,1,3,3.42,15.35,15.35,0,0,1,2.71,8.9c-.08,3.65-1.26,7.42-2.58,11.13-.64,1.81-1.31,3.63-1.9,5.45-.3.91-.58,1.83-.81,2.75-.12.47-.23.93-.32,1.39s-.17.84-.23,1.22a27.76,27.76,0,0,0-.28,5.59,26.93,26.93,0,0,0,.27,2.72,23,23,0,0,0,.53,2.43,25.25,25.25,0,0,0,2,5c.19.37.4.74.61,1.11.06.09.11.18.16.27.16.27.09.13,0,.08.14.22.29.44.44.66a24.72,24.72,0,0,0,1.66,2.19,28.52,28.52,0,0,0,3.89,3.79l.25.2c-.06-.05-.22-.16,0,0l.52.39,1.19.86c.74.51,1.51,1,2.3,1.48,1.64,1,3.37,1.87,5.13,2.72.89.43,1.8.85,2.71,1.24l1.31.56.74.3.33.14c.3.12,0,0,.15.05,3.52,1.38,7.18,2.58,10.86,3.75a39.33,39.33,0,0,1-1.11-6.22c0-.83,1-1.81,2.11-2s2.05.34,2.1,1.23a34.53,34.53,0,0,0,1.66,9c.12.38-.24.76-.47,1.14a1.11,1.11,0,0,1-.12.3c-.11.12,0,.27-.16.38s-.14,0-.2.05-.12.22-.24.29a3.75,3.75,0,0,1-1.32.48l-.8.09-.48,0-.32,0c-.3,0-.59.06-.89.11-.54.08-1.09.18-1.62.3l-.41.1-.23.06-.21.07-.48.15c-1,.33-2.18.16-2.42-.62a1.85,1.85,0,0,1,1.38-2.09c.23-.07.47-.1.7-.17-6.28-2-12.49-4.07-17.92-7-7-3.82-12.59-9-15.38-15.58a27,27,0,0,1-2.08-10.74,37.46,37.46,0,0,1,2.2-11.39,104.68,104.68,0,0,0,3.48-10.93,19.06,19.06,0,0,0,.45-5c0-.38-.06-.76-.1-1.13,0-.17,0-.35-.08-.52s0,.2,0,0a3,3,0,0,0-.07-.32,12.66,12.66,0,0,0-.64-2.12,13.55,13.55,0,0,0-1-2l-.15-.25-.29-.45c-.23-.32-.46-.64-.71-1a17.52,17.52,0,0,0-1.55-1.69c-.27-.25-.54-.5-.82-.74l-.22-.18,0,0c-.18-.15-.37-.29-.56-.43a26.4,26.4,0,0,0-4.18-2.46c-.81-.37-1.48-.55-2.31-.91-.36-.16-.65-.41-1-.56a9.13,9.13,0,0,0-1.25-.33c-.44-.09-.9-.16-1.34-.26a11.5,11.5,0,0,1-1.2-.47c-.42-.15-.32-.73.27-.82Z" transform="translate(-578.89 -499.25)"/></svg>