<svg id="Layer_1" data-name="Layer 1" xmlns="http://www.w3.org/2000/svg" viewBox="0 0 110.06 48.5"><path d="M671,538.28a19.75,19.75,0,0,0-3-2.87c-2.11-1.88-4.28-3.71-6.57-5.38a35.13,35.13,0,0,0-15.42-6.72,21.35,21.35,0,0,0-15.81,3.48c-4.43,3.22-7.45,7.94-10.37,12.48a73.09,73.09,0,0,1-10.54,13.58c-4.09,3.89-9.2,7-14.85,7.89a20.47,20.47,0,0,1-7.29-.17c-.56-.11-1.12-.25-1.67-.4s-1.2-.37-1.56-.5a26.16,26.16,0,0,1-3.15-1.42,31.18,31.18,0,0,1-10.33-9.07c-3.33-4.55-5.71-9.89-5.59-15.53,0-.29,0-.59,0-.88,0-.49,0,.33,0-.15l0-.29q.1-1,.3-1.89c.12-.58.27-1.15.44-1.71.08-.28.18-.56.27-.84-.13.36,0-.1.06-.14l.21-.55a21.67,21.67,0,0,1,1.62-3.14l.24-.37c.26-.41-.21.28.08-.11l.52-.72c.39-.5.8-1,1.23-1.46.26-.28.54-.54.81-.81-.06.38-.11.76-.2,1.14s-.15.59-.24.88c0,.13-.07.25-.11.38a1.83,1.83,0,0,0-.08.25c0,.12-.06.15,0,0a9.07,9.07,0,0,0-.4,1.1,1.54,1.54,0,0,0,.93,1.8,1.52,1.52,0,0,0,1.76-.66,4.61,4.61,0,0,0,.5-1.26,18.13,18.13,0,0,0,.76-3.64,14,14,0,0,0,.09-2.33c0-.49-.13-1-.2-1.45.1-.2.31-.36.26-.62a1.13,1.13,0,0,0-.88-.91h0a1.3,1.3,0,0,0-.85-.16c-.14,0-.11.22-.23.28s-.34,0-.5.06l-1.22.28-2.57.61c-.83.19-1.65.42-2.48.64l-1.2.31a4,4,0,0,0-1.52.54,1.44,1.44,0,0,0-.59,1.42,1.39,1.39,0,0,0,1.07,1.11,3.9,3.9,0,0,0,1.72-.25l1.2-.34,1.34-.38a23,23,0,0,0-2.07,2.73,22.24,22.24,0,0,0-2.9,6.88c-1.38,5.82,0,11.7,2.64,16.93,4.49,8.72,13,16.2,23,17.48a26.31,26.31,0,0,0,16.33-3.59,43.8,43.8,0,0,0,12.92-12c3.32-4.43,6-9.35,9.4-13.69A25.31,25.31,0,0,1,632,528.8a17.72,17.72,0,0,1,7-2.73c11.29-1.76,21,5.73,29.13,12.72.23.2.48.4.7.62a1.81,1.81,0,0,1,.36.43,2.43,2.43,0,0,0,.18.32c.22.32-.12-.19.07.12l0,.07s0-.09,0-.14a1,1,0,0,0,0,1.34,1,1,0,0,0,1.33.18,2.08,2.08,0,0,0,.86-1.65,1.72,1.72,0,0,0,0-.32c0,.24-.14-.69-.06-.33A3.07,3.07,0,0,0,671,538.28Z" transform="translate(-561.57 -515.1)"/><path d="M669.43,540.38v0s0,0,0,0C669.4,540.26,669.4,540.26,669.43,540.38Z" transform="translate(-561.57 -515.1)"/></svg>