<svg id="Layer_1" data-name="Layer 1" xmlns="http://www.w3.org/2000/svg" viewBox="0 0 114.18 89.45"><path d="M673.25,583a46.43,46.43,0,0,0-5.82-18.75c-1.66-2.85-4.2-5.54-7.59-6.1A11.29,11.29,0,0,0,652.2,560c-4.64,2.81-8.14,7.42-13.52,9a9.61,9.61,0,0,1-7.77-.87c-2.59-1.55-4.34-4.29-5.58-7a50.65,50.65,0,0,1-2.86-9c-.74-2.94-1.37-5.91-2-8.88a162.17,162.17,0,0,0-4.42-17.79,64.07,64.07,0,0,0-3.56-8.62c-1.43-2.79-3.1-6-5.67-7.89-5.18-3.85-11.42-.54-15.65,3.09-3.56,3.06-7.67,8-12.83,6.92-3-.63-5-3.13-6.4-5.62a84.66,84.66,0,0,1-4.28-9.4L566,500c1.78.88,3.51,1.86,5.34,2.63v0a1.39,1.39,0,0,0,1.48,0,1.49,1.49,0,0,0-.1-2.56,105.37,105.37,0,0,1-10.25-5.13,1.51,1.51,0,0,0-1.51.06,1.59,1.59,0,0,0-.71,1.35c0,1-.1,2.08-.16,3.11,0,.52-.07,1-.11,1.56l-.06.77,0,.36c0-.27,0,.18,0,.19q-.27,3.1-.74,6.19a1.44,1.44,0,1,0,2.81.6c.33-2.63.56-5.28.82-7.92,1.33,3.11,2.62,6.25,4,9.31a28.67,28.67,0,0,0,5.26,8.23,10.58,10.58,0,0,0,8.53,3.36,15.18,15.18,0,0,0,7.33-3.17c2.2-1.64,4.14-3.67,6.27-5.27s4.32-2.87,6.62-3.09a8.14,8.14,0,0,1,.86,0,2.49,2.49,0,0,1,.7.06,4.51,4.51,0,0,1,1.59.51,9.23,9.23,0,0,1,3.29,3.25,45.41,45.41,0,0,1,4.18,7.73c4.81,11.32,5.76,23.73,9.46,35.38,1.88,5.9,5.3,12.61,11.82,14.24,5.75,1.44,11.37-2,15.62-5.48,3.49-2.88,8.45-7.45,13.2-4.57a10.68,10.68,0,0,1,3.16,3.36,33.22,33.22,0,0,1,2.38,4.39,46,46,0,0,1,3.07,9.08,45.15,45.15,0,0,1,.8,4.65C671.09,584.59,673.4,584.51,673.25,583Z" transform="translate(-559.08 -494.72)"/></svg>