<svg xmlns="http://www.w3.org/2000/svg" id="Layer_1" data-name="Layer 1" viewBox="0 0 73.95 40.95"><defs><style>.cls-1{fill:#020202}</style></defs><path d="M570,560a67.19,67.19,0,0,0,7.18-3.13l6.8-3.56,13.76-7.18c9.12-4.77,18.18-9.66,27.24-14.53l7.61-4.09c1.27-.68,2.54-1.36,3.8-2l.91-.48-.06.11-1.53,2.77a13.2,13.2,0,0,0-1.49,3.1,1,1,0,0,0,1.67,1,12.93,12.93,0,0,0,1.94-2.74c.58-.92,1.16-1.84,1.73-2.76s1.12-1.79,1.66-2.7A5,5,0,0,0,642,522c0-.31,0-.21,0-.21a1.44,1.44,0,0,0,.4-.13c.25-.16.48-.37.72-.55a1,1,0,0,0-.21-1.56,5.82,5.82,0,0,0-.85-.38,3.3,3.3,0,0,0-1-.06,13.21,13.21,0,0,0-1.88.22c-1.1.16-2.19.33-3.28.51s-2.11.39-3.17.6l-1.62.34a7.26,7.26,0,0,0-1.7.64,1,1,0,0,0-.43,1.08,1,1,0,0,0,.91.68,7.11,7.11,0,0,0,.78.08,4.92,4.92,0,0,0,.86-.09l1.64-.22,1.91-.23-3.29,1.79-6.75,3.66-13.5,7.31c-9,4.9-18,9.93-27,14.94l-7.54,4.2c-1.28.72-2.54,1.45-3.77,2.25s-2.44,1.63-3.63,2.5C569.37,559.57,569.54,560.16,570,560Z" class="cls-1" transform="translate(-569.52 -519.08)"/></svg>