<svg id="Layer_1" data-name="Layer 1" xmlns="http://www.w3.org/2000/svg" viewBox="0 0 83.09 89.41"><path d="M574.61,496.22A166.61,166.61,0,0,0,579,524.67c2.21,9,5.15,18,10.52,25.6a81.65,81.65,0,0,0,8.78,10.33,80,80,0,0,0,9.1,8c6.38,4.74,13.82,8.31,21.79,9.11a33.14,33.14,0,0,0,11.78-.9,24.92,24.92,0,0,0,5.59-2.14,26,26,0,0,0,4.79-3.42c.29-.27.51-.6.77-.89a1.84,1.84,0,0,1,.25.09c-.26.36-.57.69-.8,1.07a34.18,34.18,0,0,0-1.89,3.72,33.71,33.71,0,0,0-1.46,3.89,11.4,11.4,0,0,0-.41,2.32c0,.3-.07.6-.08.91a3.61,3.61,0,0,0,.07.73,1.66,1.66,0,0,0,.77,1,.79.79,0,0,0,1,.15A1.93,1.93,0,0,0,650.9,583c.08-.18.16-.37.23-.55a2.14,2.14,0,0,0,.1-.22c-.07.16-.09.19,0,.07.31-.69.62-1.37.87-2.09s.43-1.18.66-1.76l.18-.43c.09-.2.16-.41,0-.08a9.65,9.65,0,0,1,.43-.92,41.72,41.72,0,0,1,4-6.57,2.06,2.06,0,0,0,0-2.08,2.16,2.16,0,0,0-1.75-1l-.13,0-.43-.07-.78-.16c-.57-.11-1.14-.25-1.7-.4a28.26,28.26,0,0,1-3.36-1.14l-.37-.15s-.51-.22-.15-.06L648,565c-.53-.25-1-.52-1.55-.81s-1-.58-1.49-.89l-.22-.14,0,0c-.09-.82-.59-1.55-1.6-1.32a2,2,0,0,0-1.42,2.37A3,3,0,0,0,643,566a27.69,27.69,0,0,0,3.67,2.33c.79.42,1.69.56,2.5.92a23.4,23.4,0,0,1-2.07,1.45,25.35,25.35,0,0,1-2.51,1.23l-1.22.52-.28.11c.32-.13.07,0,0,0-.26.09-.51.19-.77.27a29.74,29.74,0,0,1-5.42,1.31l-.67.08c-.09,0-.43,0-.07,0l-.3,0c-.49,0-1,.08-1.49.11-1,0-1.91,0-2.87,0s-1.85-.12-2.77-.23l-.68-.09-.29,0c.34.06,0,0-.08,0-.47-.08-.93-.17-1.4-.27a37.71,37.71,0,0,1-5.49-1.66l-1.26-.51-.28-.12-.07,0-.75-.35c-.85-.39-1.68-.82-2.5-1.26a54.79,54.79,0,0,1-4.83-3c-.8-.55-1.58-1.13-2.34-1.72l-.54-.42c-.24-.19.33.26-.06,0l-.24-.2-1.18-1c-1.44-1.22-2.83-2.5-4.19-3.82a86.19,86.19,0,0,1-8.4-9.4l-.26-.34c.05.06.21.28,0,0s-.3-.42-.46-.62c-.31-.45-.63-.89-.93-1.34-.62-.91-1.2-1.82-1.76-2.76a64.71,64.71,0,0,1-3.18-6c-.46-1-.9-2-1.31-3-.06-.14-.11-.28-.17-.41l0-.05-.28-.75c-.22-.57-.42-1.13-.62-1.69-.75-2.13-1.42-4.28-2-6.44a168.52,168.52,0,0,1-5.43-27.25c-.12-1.05-.22-2.13-.32-3.21a1.43,1.43,0,0,0-1.34-1.42A1.39,1.39,0,0,0,574.61,496.22Zm70.06,66.89h0Zm0,0h0l.06.15a1.27,1.27,0,0,1-.56,1.27C644.75,564.22,644.72,563.64,644.67,563.12Z" transform="translate(-574.61 -494.88)"/><path d="M649.89,584l-.29.17s.08,0,.11,0Z" transform="translate(-574.61 -494.88)"/><path d="M649.6,584.18s0,0-.05,0-.06.09-.13.1Z" transform="translate(-574.61 -494.88)"/><path d="M648.38,584s.1,0,.14,0l-.24-.24A2.14,2.14,0,0,1,648.38,584Z" transform="translate(-574.61 -494.88)"/><path d="M648.65,584.16s-.06-.1-.11-.14h0Z" transform="translate(-574.61 -494.88)"/></svg>